# xmcd
#
# Track frame offsets: 
#        150
#        10826
#        19400
#        30721
#        41214
#        53069
#        63533
#        73604
#        83198
#        94365
#        104978
#        113301
#        122818
#        134182
#        144795
#        155057
#        165499
#        175879
#        186024
#        199838
#        213589
#        231461
#        245843
#        256433
#        264121
#        278133
#        293565
#        313173
#        321521
#        335615
#        345568
#        356829
#
# Disc length: 4955 seconds
#
# Revision: 1
# Processed by: cddbd v1.5.2PL0 Copyright (c) Steve Scherf et al.
# Submitted via: ExactAudioCopy v1.3
#
DISCID=fb135920
DTITLE=Marty Robbins - The Complete Recordings 1952-1960_CD3
DYEAR=2017
DGENRE=Country
TTITLE0=Please Don't Blame Me
TTITLE1=Teen-Age Dream
TTITLE2=A White Sport Coat (And a Pink Carnation)
TTITLE3=Grown-Up Tears
TTITLE4=The Last Time I Saw My Heart
TTITLE5=Sittin' in a Tree House
TTITLE6=Stairway of Love
TTITLE7=Just Married
TTITLE8=Kaw-Liga
TTITLE9=Jodie
TTITLE10=Nothing But Sweet Lies
TTITLE11=Oh, How I Miss You
TTITLE12=Baby I Need You
TTITLE13=Shackles and Chains
TTITLE14=Waltz of the Wind
TTITLE15=Paper Face
TTITLE16=Then I Turned and Walked Slowly Away
TTITLE17=Wedding Bells
TTITLE18=A House With Everything But Love
TTITLE19=The Hands You're Holding Now
TTITLE20=Big Iron
TTITLE21=Cool Water
TTITLE22=Billy the Kid
TTITLE23=A Hundred and Sixty Acres
TTITLE24=They're Hanging Me Tonight
TTITLE25=The Strawberry Roan
TTITLE26=El Paso
TTITLE27=In the Valley
TTITLE28=The Master's Call
TTITLE29=Running Gun
TTITLE30=Little Green Valley
TTITLE31=Utah Carol
EXTD=
EXTT0=
EXTT1=
EXTT2=
EXTT3=
EXTT4=
EXTT5=
EXTT6=
EXTT7=
EXTT8=
EXTT9=
EXTT10=
EXTT11=
EXTT12=
EXTT13=
EXTT14=
EXTT15=
EXTT16=
EXTT17=
EXTT18=
EXTT19=
EXTT20=
EXTT21=
EXTT22=
EXTT23=
EXTT24=
EXTT25=
EXTT26=
EXTT27=
EXTT28=
EXTT29=
EXTT30=
EXTT31=
PLAYORDER=
